# xmcd
#
# Track frame offsets:
#	182
#	16870
#	33550
#	69902
#	105295
#	140697
#
# Disc length: 2292 seconds
# Revision: 0
# Processed by: cddbd v1.5.2PL0 Copyright (c) Steve Scherf et al.
# Submitted via: dBpowerAMP V12.0
#
DISCID=4408f206
DTITLE=Love To Infinity - Someday
DYEAR=1995
DGENRE=House
TTITLE0=Someday [Radio Master Mix]
TTITLE1=Someday [Classic Paradise Radio Mix]
TTITLE2=Someday [Subway Anthem Mix]
TTITLE3=Someday [CJ Macintosh Cosmack Club Mix]
TTITLE4=Someday [CJ Macintosh Cosmack Dub]
TTITLE5=Someday [Aphrodisiac Mix]
EXTD=
EXTT0=
EXTT1=
EXTT2=
EXTT3=
EXTT4=
EXTT5=
PLAYORDER=
